<svg width="555.1" height="123.35555555555557" viewBox="0 0 315 70" class="looka-1j8o68f">
  <defs id="SvgjsDefs3739"></defs>
  <g id="SvgjsG3740" featurekey="aMgJeN-0"
    transform="matrix(0.7446808510638298,0,0,0.7446808510638298,-1.4893617021276595,-2.234042553191489)" fill="#f0cc40">
    <g xmlns="http://www.w3.org/2000/svg">
      <path
        d="M52.183,33H43v15h9.033c2.529,0,4.455-0.463,5.779-1.729c1.327-1.262,1.99-2.962,1.99-5.266   c0-2.529-0.684-4.368-2.045-5.88C56.395,33.614,54.537,33,52.183,33z">
      </path>
      <path
        d="M82.997,3H15.265C8.073,3,2,9.048,2,16.242v67.732C2,91.168,8.073,97,15.265,97h67.732C90.191,97,96,91.168,96,83.975   V16.242C96,9.048,90.191,3,82.997,3z M67.367,53.465C63.587,56.625,58.4,58,51.81,58H43v19H30V23h22.033   c4.137,0,7.802,0.588,10.983,2.113c3.186,1.523,5.65,3.605,7.398,6.417c1.743,2.813,2.618,5.856,2.618,9.425   C73.033,46.233,71.145,50.308,67.367,53.465z">
      </path>
    </g>
  </g>
  <g id="SvgjsG3741" featurekey="8L6ael-0"
    transform="matrix(2.8822906329268316,0,0,2.8822906329268316,85.33069568923526,-0.41145179025088296)" fill="#000000">
    <path
      d="M8.36 5 q2.38 0 3.84 1.37 t1.46 3.65 t-1.44 3.64 t-3.86 1.36 l-3.82 0 l0 4.08 q0 0.28 -0.21 0.49 t-0.49 0.21 l-1.52 0 q-0.28 0 -0.49 -0.21 t-0.21 -0.49 l0 -6.2 q0 -0.28 0.21 -0.49 t0.49 -0.21 l5.92 0 q1.34 0 1.92 -0.58 q0.58 -0.52 0.58 -1.58 t-0.6 -1.63 t-1.9 -0.57 l-5.92 0 q-0.28 0 -0.49 -0.21 t-0.21 -0.49 l0 -1.44 q0 -0.28 0.21 -0.49 t0.49 -0.21 l6.04 0 z M30.628 18.86 q0.14 0.32 -0.07 0.65 t-0.57 0.33 l-13.32 0 q-0.18 0 -0.34 -0.09 t-0.24 -0.23 q-0.22 -0.32 -0.06 -0.66 l0.62 -1.46 q0.08 -0.2 0.26 -0.32 t0.38 -0.12 l9.32 0 l-3.28 -7.84 l-2.68 6.4 q-0.08 0.2 -0.25 0.31 t-0.39 0.11 l-1.68 0 q-0.38 0 -0.6 -0.32 q-0.08 -0.14 -0.1 -0.32 t0.04 -0.34 l4.06 -9.52 q0.08 -0.2 0.25 -0.32 t0.39 -0.12 l1.92 0 q0.22 0 0.39 0.12 t0.25 0.32 z M43.656 14.1 l3.02 4.62 q0.22 0.36 0.02 0.72 q-0.08 0.16 -0.25 0.26 t-0.35 0.1 l-1.82 0 q-0.18 0 -0.34 -0.09 t-0.24 -0.23 l-3.04 -4.82 l-3.56 0 l0 4.44 q0 0.28 -0.21 0.49 t-0.49 0.21 l-1.52 0 q-0.28 0 -0.49 -0.21 t-0.21 -0.49 l0 -6.58 q0 -0.28 0.21 -0.49 t0.49 -0.21 l6.16 0 q1.76 0 2.34 -1 q0.2 -0.32 0.2 -0.92 q0 -0.94 -0.62 -1.48 q-0.64 -0.58 -1.84 -0.58 l-6.24 0 q-0.28 0 -0.49 -0.21 t-0.21 -0.49 l0 -1.44 q0 -0.28 0.21 -0.49 t0.49 -0.21 l6.42 0 q2.34 0 3.74 1.32 q1.46 1.32 1.46 3.58 q0 1.46 -0.64 2.49 t-1.86 1.57 z M63.564 18.7 q0.12 0.14 0.14 0.34 t-0.07 0.38 t-0.26 0.28 t-0.37 0.1 l-1.9 0 q-0.18 0 -0.33 -0.08 t-0.25 -0.22 l-4.78 -6.88 l-1.96 1.84 l0 4.64 q0 0.28 -0.21 0.49 t-0.49 0.21 l-1.52 0 q-0.28 0 -0.49 -0.21 t-0.21 -0.49 l0 -5.56 q0 -0.32 0.22 -0.5 l8.36 -7.84 q0.2 -0.2 0.48 -0.2 l2.16 0 q0.2 0 0.38 0.12 t0.26 0.32 t0.04 0.41 t-0.2 0.37 l-4.68 4.4 z M51.564 10.1 q-0.28 0 -0.49 -0.2 t-0.21 -0.5 l0 -3.7 q0 -0.28 0.21 -0.49 t0.49 -0.21 l1.52 0 q0.28 0 0.49 0.21 t0.21 0.49 l0 3.7 q0 0.3 -0.21 0.5 t-0.49 0.2 l-1.52 0 z M79.592 5.380000000000001 q0.1 0.18 0.09 0.38 t-0.13 0.36 l-5.54 8 l0 5.14 q0 0.28 -0.21 0.49 t-0.49 0.21 l-1.54 0 q-0.3 0 -0.51 -0.21 t-0.21 -0.49 l0 -5.86 q0 -0.2 0.14 -0.4 l5.34 -7.7 q0.1 -0.14 0.25 -0.22 t0.33 -0.08 l1.86 0 q0.2 0 0.37 0.1 t0.25 0.28 z M71.172 9.78 q-0.08 0.18 -0.25 0.28 t-0.37 0.1 l-1.86 0 q-0.36 0 -0.6 -0.3 l-2.6 -3.74 q-0.1 -0.16 -0.11 -0.36 t0.07 -0.38 t0.25 -0.28 t0.37 -0.1 l1.88 0 q0.34 0 0.58 0.3 l2.6 3.74 q0.1 0.16 0.11 0.36 t-0.07 0.38 z">
    </path>
  </g>
</svg>