<svg xmlns="http://www.w3.org/2000/svg" width="555.1" height="122.66494099285087" viewBox="0 0 340 75.13255258074095"
  class="looka-1j8o68f">
  <defs id="SvgjsDefs4380"></defs>
  <g id="SvgjsG4381" featurekey="aMgJeN-0"
    transform="matrix(1.3991163161283935,0,0,1.3991163161283935,-22.385861058054296,-32.319587436286405)"
    fill="#f0cc40">
    <path xmlns="http://www.w3.org/2000/svg"
      d="M44.2,36.4c-2.9,0-5.3,2.3-5.3,5.3v23.4h4.9v-9.2h12.5c2.9,0,5.3-2.3,5.3-5.3v-8.9c0-2.9-2.3-5.3-5.3-5.3H44.2z M56.8,41.7  v8.9c0,0.2-0.2,0.4-0.4,0.4H43.8v-9.3c0-0.2,0.2-0.4,0.4-0.4h12.1C56.6,41.3,56.8,41.5,56.8,41.7z">
    </path>
    <path xmlns="http://www.w3.org/2000/svg"
      d="M83.9,52.5l-9.6-9.6l-9.6,9.6l3.7,3.7l3.4-3.4v19.2H28.1V56.4h-5v17.9c0,1.4,1.1,2.5,2.5,2.5h48.7c1.4,0,2.5-1.1,2.5-2.5  V52.7l3.4,3.4L83.9,52.5z">
    </path>
    <path xmlns="http://www.w3.org/2000/svg"
      d="M35.2,45.4l-3.7-3.7l-3.4,3.4V28.1h43.7v13.2h5V25.6c0-1.4-1.1-2.5-2.5-2.5H25.6c-1.4,0-2.5,1.1-2.5,2.5v19.6l-3.4-3.4  l-3.7,3.7l9.6,9.6L35.2,45.4z">
    </path>
  </g>
  <g id="SvgjsG4382" featurekey="8L6ael-0"
    transform="matrix(2.8822906329268316,0,0,2.8822906329268316,110.33069568923526,1.588548209749117)" fill="#000000">
    <path
      d="M8.36 5 q2.38 0 3.84 1.37 t1.46 3.65 t-1.44 3.64 t-3.86 1.36 l-3.82 0 l0 4.08 q0 0.28 -0.21 0.49 t-0.49 0.21 l-1.52 0 q-0.28 0 -0.49 -0.21 t-0.21 -0.49 l0 -6.2 q0 -0.28 0.21 -0.49 t0.49 -0.21 l5.92 0 q1.34 0 1.92 -0.58 q0.58 -0.52 0.58 -1.58 t-0.6 -1.63 t-1.9 -0.57 l-5.92 0 q-0.28 0 -0.49 -0.21 t-0.21 -0.49 l0 -1.44 q0 -0.28 0.21 -0.49 t0.49 -0.21 l6.04 0 z M30.628 18.86 q0.14 0.32 -0.07 0.65 t-0.57 0.33 l-13.32 0 q-0.18 0 -0.34 -0.09 t-0.24 -0.23 q-0.22 -0.32 -0.06 -0.66 l0.62 -1.46 q0.08 -0.2 0.26 -0.32 t0.38 -0.12 l9.32 0 l-3.28 -7.84 l-2.68 6.4 q-0.08 0.2 -0.25 0.31 t-0.39 0.11 l-1.68 0 q-0.38 0 -0.6 -0.32 q-0.08 -0.14 -0.1 -0.32 t0.04 -0.34 l4.06 -9.52 q0.08 -0.2 0.25 -0.32 t0.39 -0.12 l1.92 0 q0.22 0 0.39 0.12 t0.25 0.32 z M43.656 14.1 l3.02 4.62 q0.22 0.36 0.02 0.72 q-0.08 0.16 -0.25 0.26 t-0.35 0.1 l-1.82 0 q-0.18 0 -0.34 -0.09 t-0.24 -0.23 l-3.04 -4.82 l-3.56 0 l0 4.44 q0 0.28 -0.21 0.49 t-0.49 0.21 l-1.52 0 q-0.28 0 -0.49 -0.21 t-0.21 -0.49 l0 -6.58 q0 -0.28 0.21 -0.49 t0.49 -0.21 l6.16 0 q1.76 0 2.34 -1 q0.2 -0.32 0.2 -0.92 q0 -0.94 -0.62 -1.48 q-0.64 -0.58 -1.84 -0.58 l-6.24 0 q-0.28 0 -0.49 -0.21 t-0.21 -0.49 l0 -1.44 q0 -0.28 0.21 -0.49 t0.49 -0.21 l6.42 0 q2.34 0 3.74 1.32 q1.46 1.32 1.46 3.58 q0 1.46 -0.64 2.49 t-1.86 1.57 z M63.564 18.7 q0.12 0.14 0.14 0.34 t-0.07 0.38 t-0.26 0.28 t-0.37 0.1 l-1.9 0 q-0.18 0 -0.33 -0.08 t-0.25 -0.22 l-4.78 -6.88 l-1.96 1.84 l0 4.64 q0 0.28 -0.21 0.49 t-0.49 0.21 l-1.52 0 q-0.28 0 -0.49 -0.21 t-0.21 -0.49 l0 -5.56 q0 -0.32 0.22 -0.5 l8.36 -7.84 q0.2 -0.2 0.48 -0.2 l2.16 0 q0.2 0 0.38 0.12 t0.26 0.32 t0.04 0.41 t-0.2 0.37 l-4.68 4.4 z M51.564 10.1 q-0.28 0 -0.49 -0.2 t-0.21 -0.5 l0 -3.7 q0 -0.28 0.21 -0.49 t0.49 -0.21 l1.52 0 q0.28 0 0.49 0.21 t0.21 0.49 l0 3.7 q0 0.3 -0.21 0.5 t-0.49 0.2 l-1.52 0 z M79.592 5.380000000000001 q0.1 0.18 0.09 0.38 t-0.13 0.36 l-5.54 8 l0 5.14 q0 0.28 -0.21 0.49 t-0.49 0.21 l-1.54 0 q-0.3 0 -0.51 -0.21 t-0.21 -0.49 l0 -5.86 q0 -0.2 0.14 -0.4 l5.34 -7.7 q0.1 -0.14 0.25 -0.22 t0.33 -0.08 l1.86 0 q0.2 0 0.37 0.1 t0.25 0.28 z M71.172 9.78 q-0.08 0.18 -0.25 0.28 t-0.37 0.1 l-1.86 0 q-0.36 0 -0.6 -0.3 l-2.6 -3.74 q-0.1 -0.16 -0.11 -0.36 t0.07 -0.38 t0.25 -0.28 t0.37 -0.1 l1.88 0 q0.34 0 0.58 0.3 l2.6 3.74 q0.1 0.16 0.11 0.36 t-0.07 0.38 z">
    </path>
  </g>
</svg>